# xmcd
#
# Track frame offsets:
#	150
#	14024
#	40154
#	83287
#	100779
#	114209
#	128026
#	140040
#	167497
#	189894
#	213534
#	232669
#	246956
#
# Disc length: 3435 seconds
#
# Revision: 0
# Processed by: cddbd v1.5.1PL0 Copyright (c) Steve Scherf et al.
# Submitted via: dBpowerAMP V4.0
#
DISCID=9b0d690d
DTITLE=Van Morrison - Brown Eyed Girl
DYEAR=1900
DGENRE=Blues
TTITLE0=Brown Eyed Girl
TTITLE1=He Ain't Give You None
TTITLE2=T.B. Sheets
TTITLE3=Spanish Rose
TTITLE4=Goodbye Baby (Baby Goodbye)
TTITLE5=Ro Ro Rosey
TTITLE6=Midnight Special
TTITLE7=Beside You
TTITLE8=It's All Right
TTITLE9=Madame George
TTITLE10=Joe Harper Saturday Morning
TTITLE11=Chick-A-Boom
TTITLE12=I Love You (The Smile You Smile)
EXTD=
EXTT0=
EXTT1=
EXTT2=
EXTT3=
EXTT4=
EXTT5=
EXTT6=
EXTT7=
EXTT8=
EXTT9=
EXTT10=
EXTT11=
EXTT12=
PLAYORDER=
